<svg version="1.1" xmlns="http://www.w3.org/2000/svg" xmlns:xlink="http://www.w3.org/1999/xlink" width="812" height="587"><defs/><g><g transform="translate(-446,-158) scale(1,1)"><path fill="#C0C0C0" stroke="none" d="M 463 185 L 1244 185 L 1244 741 L 463 741" opacity="0.2"/></g><g transform="translate(-446,-158) scale(1,1)"><path fill="#C0C0C0" stroke="none" d="M 463 185 L 473 175 L 1254 175 L 1244 185" opacity="0.2"/></g><g transform="translate(-446,-158) scale(1,1)"><path fill="#C0C0C0" stroke="none" d="M 1254 175 L 1244 185 L 1244 741 L 1254 731" opacity="0.2"/></g><g transform="translate(-446,-158) scale(1,1)"><path fill="#ffffff" stroke="none" d="M 456 178 L 1237 178 L 1237 734 L 456 734"/></g><g transform="translate(-446,-158) scale(1,1)"><path fill="#ffffff" stroke="none" d="M 456 178 L 466 168 L 1247 168 L 1237 178"/></g><g transform="translate(-446,-158) scale(1,1)"><path fill="#ffffff" stroke="none" d="M 1247 168 L 1237 178 L 1237 734 L 1247 724"/></g><g transform="translate(-446,-158) scale(1,1)"><path fill="none" stroke="#000000" d="M 456 178 L 1237 178 L 1237 734 L 456 734 L 456 178" stroke-miterlimit="10"/></g><g transform="translate(-446,-158) scale(1,1)"><path fill="none" stroke="#000000" d="M 456 178 L 466 168 L 1247 168 L 1237 178 L 456 178" stroke-miterlimit="10"/></g><g transform="translate(-446,-158) scale(1,1)"><path fill="none" stroke="#000000" d="M 1247 168 L 1237 178 L 1237 734 L 1247 724 L 1247 168" stroke-miterlimit="10"/></g><g transform="translate(-446,-158) scale(1,1)"><g><path fill="none" stroke="none"/><text fill="#000000" stroke="none" font-family="Arial" font-size="13px" font-style="normal" font-weight="normal" text-decoration="none" x="827.484130859375" y="195.5">«host»</text></g></g><g transform="translate(-446,-158) scale(1,1)"><g><path fill="none" stroke="none"/><text fill="#000000" stroke="none" font-family="Arial" font-size="13px" font-style="normal" font-weight="bold" text-decoration="none" x="801.109619140625" y="210.5">banking.esipe.fr</text></g></g><g transform="translate(-446,-158) scale(1,1)"><rect fill="#C0C0C0" stroke="none" x="489" y="399" width="198.91162109375" height="44" opacity="0.2"/></g><g transform="translate(-446,-158) scale(1,1)"><rect fill="#ffffff" stroke="none" x="482" y="392" width="198.91162109375" height="44"/></g><g transform="translate(-446,-158) scale(1,1)"><path fill="none" stroke="#000000" d="M 482 392 L 680.91162109375 392 L 680.91162109375 436 L 482 436 L 482 392 Z Z" stroke-miterlimit="10"/></g><g transform="translate(-446,-158) scale(1,1)"><rect fill="#ffffff" stroke="none" x="472" y="399" width="20" height="10"/></g><g transform="translate(-446,-158) scale(1,1)"><path fill="none" stroke="#000000" d="M 472 399 L 492 399 L 492 409 L 472 409 L 472 399 Z Z" stroke-miterlimit="10"/></g><g transform="translate(-446,-158) scale(1,1)"><rect fill="#ffffff" stroke="none" x="472" y="419" width="20" height="10"/></g><g transform="translate(-446,-158) scale(1,1)"><path fill="none" stroke="#000000" d="M 472 419 L 492 419 L 492 429 L 472 429 L 472 419 Z Z" stroke-miterlimit="10"/></g><g transform="translate(-446,-158) scale(1,1)"><g><path fill="none" stroke="none"/><text fill="#000000" stroke="none" font-family="Arial" font-size="13px" font-style="normal" font-weight="normal" text-decoration="none" x="572.002197265625" y="409.5">«jar»</text></g></g><g transform="translate(-446,-158) scale(1,1)"><g><path fill="none" stroke="none"/><text fill="#000000" stroke="none" font-family="Arial" font-size="13px" font-style="normal" font-weight="bold" text-decoration="none" x="499.03271484375" y="424.5">data-access-1.0.0SNAPSHOT</text></g></g><g transform="translate(-446,-158) scale(1,1)"><rect fill="#C0C0C0" stroke="none" x="841" y="391" width="193.8525390625" height="44" opacity="0.2"/></g><g transform="translate(-446,-158) scale(1,1)"><rect fill="#ffffff" stroke="none" x="834" y="384" width="193.8525390625" height="44"/></g><g transform="translate(-446,-158) scale(1,1)"><path fill="none" stroke="#000000" d="M 834 384 L 1027.8525390625 384 L 1027.8525390625 428 L 834 428 L 834 384 Z Z" stroke-miterlimit="10"/></g><g transform="translate(-446,-158) scale(1,1)"><rect fill="#ffffff" stroke="none" x="824" y="391" width="20" height="10"/></g><g transform="translate(-446,-158) scale(1,1)"><path fill="none" stroke="#000000" d="M 824 391 L 844 391 L 844 401 L 824 401 L 824 391 Z Z" stroke-miterlimit="10"/></g><g transform="translate(-446,-158) scale(1,1)"><rect fill="#ffffff" stroke="none" x="824" y="411" width="20" height="10"/></g><g transform="translate(-446,-158) scale(1,1)"><path fill="none" stroke="#000000" d="M 824 411 L 844 411 L 844 421 L 824 421 L 824 411 Z Z" stroke-miterlimit="10"/></g><g transform="translate(-446,-158) scale(1,1)"><g><path fill="none" stroke="none"/><text fill="#000000" stroke="none" font-family="Arial" font-size="13px" font-style="normal" font-weight="normal" text-decoration="none" x="921.47265625" y="401.5">«jar»</text></g></g><g transform="translate(-446,-158) scale(1,1)"><g><path fill="none" stroke="none"/><text fill="#000000" stroke="none" font-family="Arial" font-size="13px" font-style="normal" font-weight="bold" text-decoration="none" x="854.64453125" y="416.5">client-management-services</text></g></g><g transform="translate(-446,-158) scale(1,1)"><rect fill="#C0C0C0" stroke="none" x="769" y="327" width="112.18359375" height="44" opacity="0.2"/></g><g transform="translate(-446,-158) scale(1,1)"><rect fill="#ffffff" stroke="none" x="762" y="320" width="112.18359375" height="44"/></g><g transform="translate(-446,-158) scale(1,1)"><path fill="none" stroke="#000000" d="M 762 320 L 874.18359375 320 L 874.18359375 364 L 762 364 L 762 320 Z Z" stroke-miterlimit="10"/></g><g transform="translate(-446,-158) scale(1,1)"><rect fill="#ffffff" stroke="none" x="752" y="327" width="20" height="10"/></g><g transform="translate(-446,-158) scale(1,1)"><path fill="none" stroke="#000000" d="M 752 327 L 772 327 L 772 337 L 752 337 L 752 327 Z Z" stroke-miterlimit="10"/></g><g transform="translate(-446,-158) scale(1,1)"><rect fill="#ffffff" stroke="none" x="752" y="347" width="20" height="10"/></g><g transform="translate(-446,-158) scale(1,1)"><path fill="none" stroke="#000000" d="M 752 347 L 772 347 L 772 357 L 752 357 L 752 347 Z Z" stroke-miterlimit="10"/></g><g transform="translate(-446,-158) scale(1,1)"><g><path fill="none" stroke="none"/><text fill="#000000" stroke="none" font-family="Arial" font-size="13px" font-style="normal" font-weight="normal" text-decoration="none" x="808.63818359375" y="337.5">«jar»</text></g></g><g transform="translate(-446,-158) scale(1,1)"><g><path fill="none" stroke="none"/><text fill="#000000" stroke="none" font-family="Arial" font-size="13px" font-style="normal" font-weight="bold" text-decoration="none" x="781.194091796875" y="352.5">rest-client-utils</text></g></g><g transform="translate(-446,-158) scale(1,1)"><rect fill="#C0C0C0" stroke="none" x="1121" y="287" width="109.33349609375" height="44" opacity="0.2"/></g><g transform="translate(-446,-158) scale(1,1)"><rect fill="#ffffff" stroke="none" x="1114" y="280" width="109.33349609375" height="44"/></g><g transform="translate(-446,-158) scale(1,1)"><path fill="none" stroke="#000000" d="M 1114 280 L 1223.33349609375 280 L 1223.33349609375 324 L 1114 324 L 1114 280 Z Z" stroke-miterlimit="10"/></g><g transform="translate(-446,-158) scale(1,1)"><rect fill="#ffffff" stroke="none" x="1104" y="287" width="20" height="10"/></g><g transform="translate(-446,-158) scale(1,1)"><path fill="none" stroke="#000000" d="M 1104 287 L 1124 287 L 1124 297 L 1104 297 L 1104 287 Z Z" stroke-miterlimit="10"/></g><g transform="translate(-446,-158) scale(1,1)"><rect fill="#ffffff" stroke="none" x="1104" y="307" width="20" height="10"/></g><g transform="translate(-446,-158) scale(1,1)"><path fill="none" stroke="#000000" d="M 1104 307 L 1124 307 L 1124 317 L 1104 317 L 1104 307 Z Z" stroke-miterlimit="10"/></g><g transform="translate(-446,-158) scale(1,1)"><g><path fill="none" stroke="none"/><text fill="#000000" stroke="none" font-family="Arial" font-size="13px" font-style="normal" font-weight="normal" text-decoration="none" x="1159.213134765625" y="297.5">«jar»</text></g></g><g transform="translate(-446,-158) scale(1,1)"><g><path fill="none" stroke="none"/><text fill="#000000" stroke="none" font-family="Arial" font-size="13px" font-style="normal" font-weight="bold" text-decoration="none" x="1132.489501953125" y="312.5">client-services</text></g></g><g transform="translate(-446,-158) scale(1,1)"><rect fill="#C0C0C0" stroke="none" x="793" y="647" width="102.79541015625" height="44" opacity="0.2"/></g><g transform="translate(-446,-158) scale(1,1)"><rect fill="#ffffff" stroke="none" x="786" y="640" width="102.79541015625" height="44"/></g><g transform="translate(-446,-158) scale(1,1)"><path fill="none" stroke="#000000" d="M 786 640 L 888.79541015625 640 L 888.79541015625 684 L 786 684 L 786 640 Z Z" stroke-miterlimit="10"/></g><g transform="translate(-446,-158) scale(1,1)"><rect fill="#ffffff" stroke="none" x="776" y="647" width="20" height="10"/></g><g transform="translate(-446,-158) scale(1,1)"><path fill="none" stroke="#000000" d="M 776 647 L 796 647 L 796 657 L 776 657 L 776 647 Z Z" stroke-miterlimit="10"/></g><g transform="translate(-446,-158) scale(1,1)"><rect fill="#ffffff" stroke="none" x="776" y="667" width="20" height="10"/></g><g transform="translate(-446,-158) scale(1,1)"><path fill="none" stroke="#000000" d="M 776 667 L 796 667 L 796 677 L 776 677 L 776 667 Z Z" stroke-miterlimit="10"/></g><g transform="translate(-446,-158) scale(1,1)"><g><path fill="none" stroke="none"/><text fill="#000000" stroke="none" font-family="Arial" font-size="13px" font-style="normal" font-weight="normal" text-decoration="none" x="827.944091796875" y="657.5">«jar»</text></g></g><g transform="translate(-446,-158) scale(1,1)"><g><path fill="none" stroke="none"/><text fill="#000000" stroke="none" font-family="Arial" font-size="13px" font-style="normal" font-weight="bold" text-decoration="none" x="804.10546875" y="672.5">client-models</text></g></g><g transform="translate(-446,-158) scale(1,1)"><rect fill="#C0C0C0" stroke="none" x="753" y="231" width="227.76806640625" height="44" opacity="0.2"/></g><g transform="translate(-446,-158) scale(1,1)"><rect fill="#ffffff" stroke="none" x="746" y="224" width="227.76806640625" height="44"/></g><g transform="translate(-446,-158) scale(1,1)"><path fill="none" stroke="#000000" d="M 746 224 L 973.76806640625 224 L 973.76806640625 268 L 746 268 L 746 224 Z Z" stroke-miterlimit="10"/></g><g transform="translate(-446,-158) scale(1,1)"><rect fill="#ffffff" stroke="none" x="736" y="231" width="20" height="10"/></g><g transform="translate(-446,-158) scale(1,1)"><path fill="none" stroke="#000000" d="M 736 231 L 756 231 L 756 241 L 736 241 L 736 231 Z Z" stroke-miterlimit="10"/></g><g transform="translate(-446,-158) scale(1,1)"><rect fill="#ffffff" stroke="none" x="736" y="251" width="20" height="10"/></g><g transform="translate(-446,-158) scale(1,1)"><path fill="none" stroke="#000000" d="M 736 251 L 756 251 L 756 261 L 736 261 L 736 251 Z Z" stroke-miterlimit="10"/></g><g transform="translate(-446,-158) scale(1,1)"><g><path fill="none" stroke="none"/><text fill="#000000" stroke="none" font-family="Arial" font-size="13px" font-style="normal" font-weight="normal" text-decoration="none" x="850.430419921875" y="241.5">«jar»</text></g></g><g transform="translate(-446,-158) scale(1,1)"><g><path fill="none" stroke="none"/><text fill="#000000" stroke="none" font-family="Arial" font-size="13px" font-style="normal" font-weight="bold" text-decoration="none" x="765.17822265625" y="256.5">aspectj-aop-utils-1.0.0SNAPSHOT</text></g></g><g transform="translate(-446,-158) scale(1,1)"><path fill="none" stroke="#000000" d="M 600 437 L 808 639" stroke-miterlimit="10" stroke-dasharray="3"/></g><g transform="translate(-446,-158) scale(1,1)"><path fill="none" stroke="#000000" d="M 797.7768170743313 634.9396390716691 L 808 639 L 803.6422267744368 628.9000092814615" stroke-miterlimit="10"/></g><g transform="translate(-446,-158) scale(1,1)"><path fill="none" stroke="#000000" d="M 917 429 L 840 639" stroke-miterlimit="10" stroke-dasharray="3"/></g><g transform="translate(-446,-158) scale(1,1)"><path fill="none" stroke="#000000" d="M 839.546331545195 628.0093592118969 L 840 639 L 847.4507645900501 630.9076513283438" stroke-miterlimit="10"/></g><g transform="translate(-446,-158) scale(1,1)"><path fill="none" stroke="#000000" d="M 1142 325 L 853 639" stroke-miterlimit="10" stroke-dasharray="3"/></g><g transform="translate(-446,-158) scale(1,1)"><path fill="none" stroke="#000000" d="M 856.7849281399987 628.6716739509712 L 853 639 L 862.9795777416707 634.373118966523" stroke-miterlimit="10"/></g><g transform="translate(-446,-158) scale(1,1)"><path fill="none" stroke="#000000" d="M 915 383 L 864 269" stroke-miterlimit="10" stroke-dasharray="3"/></g><g transform="translate(-446,-158) scale(1,1)"><path fill="none" stroke="#000000" d="M 871.9926161306282 276.55765091734344 L 864 269 L 864.307566851894 279.99569927888246" stroke-miterlimit="10"/></g><g transform="translate(-446,-158) scale(1,1)"><path fill="none" stroke="#000000" d="M 823 319 L 844 269" stroke-miterlimit="10" stroke-dasharray="3"/></g><g transform="translate(-446,-158) scale(1,1)"><path fill="none" stroke="#000000" d="M 843.9457822114724 279.9998663824343 L 844 269 L 836.1835821229059 276.7397423452364" stroke-miterlimit="10"/></g><g transform="translate(-446,-158) scale(1,1)"><path fill="none" stroke="#000000" d="M 1103 291 L 975 268" stroke-miterlimit="10" stroke-dasharray="3"/></g><g transform="translate(-446,-158) scale(1,1)"><path fill="none" stroke="#000000" d="M 985.7469541980826 265.654157834739 L 975 268 L 984.2580050932148 273.940483287916" stroke-miterlimit="10"/></g><g transform="translate(-446,-158) scale(1,1)"><path fill="none" stroke="#000000" d="M 614 391 L 816 269" stroke-miterlimit="10" stroke-dasharray="3"/></g><g transform="translate(-446,-158) scale(1,1)"><path fill="none" stroke="#000000" d="M 809.4770774704007 277.85728410252517 L 816 269 L 805.1245515943745 270.6506428979572" stroke-miterlimit="10"/></g><g transform="translate(-446,-158) scale(1,1)"><path fill="none" stroke="#000000" d="M 814 365 L 831 639" stroke-miterlimit="10" stroke-dasharray="3"/></g><g transform="translate(-446,-158) scale(1,1)"><path fill="none" stroke="#000000" d="M 826.169240233491 629.1175023360348 L 831 639 L 834.5721181240683 628.5961558975683" stroke-miterlimit="10"/></g><g transform="translate(-446,-158) scale(1,1)"><path fill="none" stroke="#000000" d="M 885 383 L 853 365" stroke-miterlimit="10" stroke-dasharray="3"/></g><g transform="translate(-446,-158) scale(1,1)"><path fill="none" stroke="#000000" d="M 863.9213021909756 366.3134528744465 L 853 365 L 859.7937754043362 373.65127827291644" stroke-miterlimit="10"/></g><g transform="translate(-446,-158) scale(1,1)"><path fill="none" stroke="#000000" d="M 1103 309 L 875 335" stroke-miterlimit="10" stroke-dasharray="3"/></g><g transform="translate(-446,-158) scale(1,1)"><path fill="none" stroke="#000000" d="M 884.6202930221632 329.6661494051935 L 875 335 L 885.5741763583968 338.0309725075497" stroke-miterlimit="10"/></g><g transform="translate(-446,-158) scale(1,1)"><path fill="#C0C0C0" stroke="none" d="M 718.7099609375 410.5 C 718.7099609375 404.1487248 723.8586857375 399 730.2099609375 399 C 736.5612361375 399 741.7099609375 404.1487248 741.7099609375 410.5 C 741.7099609375 416.8512752 736.5612361375 422 730.2099609375 422 C 723.8586857375 422 718.7099609375 416.8512752 718.7099609375 410.5 Z" opacity="0.2"/></g><g transform="translate(-446,-158) scale(1,1)"><path fill="none" stroke="#000000" d="M 718.7290072219278 392.3225180548195 A 11.5 11.5 0 0 1 727.2709927780722 413.6774819451805" stroke-miterlimit="10"/></g><g transform="translate(-446,-158) scale(1,1)"><path fill="#ffffff" stroke="none" d="M 714.7099609375 403.5 C 714.7099609375 398.8055792 718.5155401375 395 723.2099609375 395 C 727.9043817375 395 731.7099609375 398.8055792 731.7099609375 403.5 C 731.7099609375 408.1944208 727.9043817375 412 723.2099609375 412 C 718.5155401375 412 714.7099609375 408.1944208 714.7099609375 403.5 Z"/></g><g transform="translate(-446,-158) scale(1,1)"><path fill="none" stroke="#000000" d="M 714.7099609375 403.5 C 714.7099609375 398.8055792 718.5155401375 395 723.2099609375 395 C 727.9043817375 395 731.7099609375 398.8055792 731.7099609375 403.5 C 731.7099609375 408.1944208 727.9043817375 412 723.2099609375 412 C 718.5155401375 412 714.7099609375 408.1944208 714.7099609375 403.5 Z" stroke-miterlimit="10"/></g><g transform="translate(-446,-158) scale(1,1)"><g><path fill="none" stroke="none"/><text fill="#000000" stroke="none" font-family="Arial" font-size="13px" font-style="normal" font-weight="bold" text-decoration="none" x="705.87451171875" y="434.5">REST</text></g></g><g transform="translate(-446,-158) scale(1,1)"><path fill="none" stroke="#000000" d="M 682 415 L 711.7099609375 407.07695855034723" stroke-miterlimit="10"/></g><g transform="translate(-446,-158) scale(1,1)"><path fill="none" stroke="#000000" d="M 785 365 L 734.7099609375 398.316015625" stroke-miterlimit="10"/></g></g></svg>